<svg width="60" height="60" viewBox="0 0 60 60" fill="none" xmlns="http://www.w3.org/2000/svg">
<rect x="0.5" y="0.5" width="59" height="59" rx="29.5" stroke="url(#paint0_linear_1_5626)"/>
<rect x="0.5" y="0.5" width="59" height="59" rx="29.5" stroke="url(#paint1_linear_1_5626)"/>
<rect x="8.5" y="8.5" width="43" height="43" rx="21.5" stroke="url(#paint2_linear_1_5626)"/>
<rect x="8.5" y="8.5" width="43" height="43" rx="21.5" stroke="url(#paint3_linear_1_5626)"/>
<path fill-rule="evenodd" clip-rule="evenodd" d="M19.2 21.3C19.2 20.803 19.6029 20.4 20.1 20.4H32.7C33.197 20.4 33.6 20.803 33.6 21.3C33.6 21.7971 33.197 22.2 32.7 22.2H32.4V38.7C32.4 39.1971 31.997 39.6 31.5 39.6H29.7C29.2029 39.6 28.8 39.1971 28.8 38.7V35.7C28.8 35.203 28.397 34.8 27.9 34.8H24.9C24.4029 34.8 24 35.203 24 35.7V38.7C24 39.1971 23.597 39.6 23.1 39.6H20.1C19.6029 39.6 19.2 39.1971 19.2 38.7C19.2 38.203 19.6029 37.8 20.1 37.8H20.4V22.2H20.1C19.6029 22.2 19.2 21.7971 19.2 21.3ZM22.8 24.6C22.8 24.2687 23.0686 24 23.4 24H24.6C24.9313 24 25.2 24.2687 25.2 24.6V25.8C25.2 26.1314 24.9313 26.4 24.6 26.4H23.4C23.0686 26.4 22.8 26.1314 22.8 25.8V24.6ZM23.4 28.8C23.0686 28.8 22.8 29.0687 22.8 29.4V30.6C22.8 30.9314 23.0686 31.2 23.4 31.2H24.6C24.9313 31.2 25.2 30.9314 25.2 30.6V29.4C25.2 29.0687 24.9313 28.8 24.6 28.8H23.4ZM27.6 24.6C27.6 24.2687 27.8686 24 28.2 24H29.4C29.7313 24 30 24.2687 30 24.6V25.8C30 26.1314 29.7313 26.4 29.4 26.4H28.2C27.8686 26.4 27.6 26.1314 27.6 25.8V24.6ZM28.2 28.8C27.8686 28.8 27.6 29.0687 27.6 29.4V30.6C27.6 30.9314 27.8686 31.2 28.2 31.2H29.4C29.7313 31.2 30 30.9314 30 30.6V29.4C30 29.0687 29.7313 28.8 29.4 28.8H28.2Z" fill="#A685FA"/>
<path fill-rule="evenodd" clip-rule="evenodd" d="M35.1 25.2C34.6029 25.2 34.2 25.603 34.2 26.1V38.4C34.2 39.0628 34.7372 39.6 35.4 39.6H39.9C40.397 39.6 40.8 39.1971 40.8 38.7C40.8 38.203 40.397 37.8 39.9 37.8H39.6V27H39.9C40.397 27 40.8 26.5971 40.8 26.1C40.8 25.603 40.397 25.2 39.9 25.2H35.1ZM35.7 29.4C35.7 29.0687 35.9686 28.8 36.3 28.8H37.5C37.8313 28.8 38.1 29.0687 38.1 29.4V30.6C38.1 30.9314 37.8313 31.2 37.5 31.2H36.3C35.9686 31.2 35.7 30.9314 35.7 30.6V29.4ZM36.3 33.6C35.9686 33.6 35.7 33.8687 35.7 34.2V35.4C35.7 35.7314 35.9686 36 36.3 36H37.5C37.8313 36 38.1 35.7314 38.1 35.4V34.2C38.1 33.8687 37.8313 33.6 37.5 33.6H36.3Z" fill="#A685FA"/>
<defs>
<linearGradient id="paint0_linear_1_5626" x1="4.93903" y1="63.2927" x2="62.7439" y2="-4.02439" gradientUnits="userSpaceOnUse">
<stop stop-color="#A685FA"/>
<stop offset="0.323723" stop-color="#A685FA" stop-opacity="0"/>
</linearGradient>
<linearGradient id="paint1_linear_1_5626" x1="59.8171" y1="-7.68292" x2="4.93902" y2="60" gradientUnits="userSpaceOnUse">
<stop stop-color="#A685FA"/>
<stop offset="0.576615" stop-color="#A685FA" stop-opacity="0"/>
</linearGradient>
<linearGradient id="paint2_linear_1_5626" x1="3.20968" y1="10.4839" x2="51.8226" y2="52" gradientUnits="userSpaceOnUse">
<stop stop-color="#A685FA"/>
<stop offset="0.323723" stop-color="#A685FA" stop-opacity="0"/>
</linearGradient>
<linearGradient id="paint3_linear_1_5626" x1="60.6935" y1="61.9355" x2="9.59677" y2="25.7419" gradientUnits="userSpaceOnUse">
<stop stop-color="#A685FA"/>
<stop offset="0.576615" stop-color="#A685FA" stop-opacity="0"/>
</linearGradient>
</defs>
</svg>
